<?xml version="1.0" standalone="no"?><!DOCTYPE svg PUBLIC "-//W3C//DTD SVG 1.1//EN" "http://www.w3.org/Graphics/SVG/1.1/DTD/svg11.dtd"><svg class="icon" style="" viewBox="0 0 1024 1024" version="1.1" xmlns="http://www.w3.org/2000/svg" p-id="2350" xmlns:xlink="http://www.w3.org/1999/xlink" width="200" height="200"><defs><style type="text/css"><![CDATA[

]]></style></defs><path d="M953.710592 491.392c-7.671808 11.71456-22.46656 14.367744-33.081344 5.856256L522.91072 164.71552c-0.193536-0.110592-0.360448-0.205824-0.524288-0.316416-3.408896-2.70848-7.48032-4.165632-11.71456-4.165632s-8.331264 1.457152-11.767808 4.165632c-0.05632 0.055296-0.165888 0.110592-0.248832 0.13824l-397.96736 332.710912c-10.560512 8.511488-25.35424 5.858304-33.053696-5.856256-7.64416-11.71456-5.33504-28.10368 5.252096-36.683776l398.297088-332.8768c0.193536-0.082944 0.385024-0.262144 0.523264-0.412672 11.465728-8.979456 24.91392-13.722624 38.965248-13.722624 13.474816 0 26.427392 4.455424 37.536768 12.744704 0.66048 0.39936 1.319936 0.867328 1.951744 1.390592l150.695936 126.742528 0-16.086016c0-19.716096 14.354432-35.72224 32.091136-35.72224l61.266944 0c17.737728 0 32.147456 16.00512 32.147456 35.72224l0 116.651008 122.09664 105.56928C959.072256 463.28832 961.3568 479.67744 953.710592 491.392zM478.773248 275.055616c0.108544-0.108544 0.192512-0.136192 0.275456-0.274432 9.293824-7.286784 20.238336-11.205632 31.623168-11.205632 11.441152 0.055296 22.38464 3.946496 31.707136 11.343872 0 0 0.13824 0.08192 0.192512 0.136192l276.007936 234.128384c6.105088 5.0176 9.736192 12.923904 9.736192 21.256192l0 296.455168c0 50.695168-37.097472 91.904-82.746368 91.904L602.244096 918.79936 602.244096 697.800704c0-38.991872-28.435456-70.506496-63.468544-70.506496l-65.83296 0c-35.034112 0-63.439872 31.514624-63.439872 70.506496l0 220.998656L275.746816 918.79936c-45.5936 0-82.771968-41.208832-82.771968-91.904L192.974848 530.440192c0-8.332288 3.601408-16.237568 9.78944-21.256192L478.773248 275.055616z" p-id="2351" fill="#ffffff"></path></svg>